<mxfile host="app.diagrams.net" modified="2020-12-30T10:38:54.237Z" agent="5.0 (Windows NT 10.0; Win64; x64) AppleWebKit/537.36 (KHTML, like Gecko) Chrome/87.0.4280.88 Safari/537.36" etag="El7ur4LDRPt7QulBMXxM" version="14.1.3" type="github">
  <diagram id="kgpKYQtTHZ0yAKxKKP6v" name="Page-1">
    <mxGraphModel dx="1828" dy="1073" grid="1" gridSize="10" guides="1" tooltips="1" connect="1" arrows="1" fold="1" page="1" pageScale="1" pageWidth="1800" pageHeight="600" math="0" shadow="0">
      <root>
        <mxCell id="0" />
        <mxCell id="1" parent="0" />
        <mxCell id="O3HHik6MoNN61QqDQuIx-64" value="&lt;span style=&quot;font-family: &amp;#34;verdana&amp;#34; ; text-align: center&quot;&gt;7: اطلاعات رستوران) ثبت رستوران)&lt;/span&gt;" style="text;whiteSpace=wrap;html=1;rotation=346;" vertex="1" parent="1">
          <mxGeometry x="584.3399999999999" y="228" width="189.32" height="30" as="geometry" />
        </mxCell>
        <mxCell id="O3HHik6MoNN61QqDQuIx-27" value="(ثبت نام (رستوران " style="shape=note;whiteSpace=wrap;html=1;size=14;verticalAlign=top;align=left;spacingTop=-6;rounded=0;shadow=0;comic=0;labelBackgroundColor=none;strokeWidth=1;fontFamily=Verdana;fontSize=12" vertex="1" parent="1">
          <mxGeometry width="100" height="35" as="geometry" />
        </mxCell>
        <mxCell id="O3HHik6MoNN61QqDQuIx-30" value="فروشنده" style="shape=umlActor;verticalLabelPosition=bottom;verticalAlign=top;html=1;outlineConnect=0;" vertex="1" parent="1">
          <mxGeometry x="180" y="266" width="30" height="60" as="geometry" />
        </mxCell>
        <mxCell id="O3HHik6MoNN61QqDQuIx-31" value="سیستم" style="rounded=0;whiteSpace=wrap;html=1;" vertex="1" parent="1">
          <mxGeometry x="440" y="256" width="120" height="60" as="geometry" />
        </mxCell>
        <mxCell id="O3HHik6MoNN61QqDQuIx-33" value="ادمین" style="rounded=1;whiteSpace=wrap;html=1;" vertex="1" parent="1">
          <mxGeometry x="1100" y="336" width="120" height="60" as="geometry" />
        </mxCell>
        <mxCell id="O3HHik6MoNN61QqDQuIx-34" value="فروشنده" style="rounded=1;whiteSpace=wrap;html=1;" vertex="1" parent="1">
          <mxGeometry x="800" y="196" width="120" height="60" as="geometry" />
        </mxCell>
        <mxCell id="O3HHik6MoNN61QqDQuIx-36" value="ادمین" style="shape=umlActor;verticalLabelPosition=bottom;verticalAlign=top;html=1;outlineConnect=0;" vertex="1" parent="1">
          <mxGeometry x="810" y="346" width="30" height="60" as="geometry" />
        </mxCell>
        <mxCell id="O3HHik6MoNN61QqDQuIx-37" value="رستوران" style="rounded=1;whiteSpace=wrap;html=1;" vertex="1" parent="1">
          <mxGeometry x="1420" y="336" width="120" height="60" as="geometry" />
        </mxCell>
        <mxCell id="O3HHik6MoNN61QqDQuIx-40" value="" style="endArrow=classicThin;html=1;strokeWidth=1;endSize=20;entryX=0;entryY=0.5;entryDx=0;entryDy=0;" edge="1" parent="1">
          <mxGeometry width="100" relative="1" as="geometry">
            <mxPoint x="395" y="233" as="sourcePoint" />
            <mxPoint x="425" y="233" as="targetPoint" />
            <Array as="points" />
          </mxGeometry>
        </mxCell>
        <mxCell id="O3HHik6MoNN61QqDQuIx-41" value="&lt;span style=&quot;font-family: &amp;#34;verdana&amp;#34; ; text-align: center&quot;&gt;1: اطلاعات کاربر) درخواست ثبت نام)&lt;/span&gt;" style="text;whiteSpace=wrap;html=1;" vertex="1" parent="1">
          <mxGeometry x="221" y="218" width="172" height="30" as="geometry" />
        </mxCell>
        <mxCell id="O3HHik6MoNN61QqDQuIx-42" value="&lt;span style=&quot;color: rgba(0 , 0 , 0 , 0) ; font-family: monospace ; font-size: 0px ; background-color: rgb(248 , 249 , 250)&quot;&gt;%3CmxGraphModel%3E%3Croot%3E%3CmxCell%20id%3D%220%22%2F%3E%3CmxCell%20id%3D%221%22%20parent%3D%220%22%2F%3E%3CmxCell%20id%3D%222%22%20value%3D%22%22%20style%3D%22endArrow%3Dnone%3Bhtml%3D1%3BexitX%3D1%3BexitY%3D0.5%3BexitDx%3D0%3BexitDy%3D0%3BentryX%3D0%3BentryY%3D0.5%3BentryDx%3D0%3BentryDy%3D0%3B%22%20edge%3D%221%22%20parent%3D%221%22%3E%3CmxGeometry%20width%3D%2250%22%20height%3D%2250%22%20relative%3D%221%22%20as%3D%22geometry%22%3E%3CmxPoint%20x%3D%22434.0000000000002%22%20y%3D%22240%22%20as%3D%22sourcePoint%22%2F%3E%3CmxPoint%20x%3D%22683.9999999999998%22%20y%3D%22240%22%20as%3D%22targetPoint%22%2F%3E%3C%2FmxGeometry%3E%3C%2FmxCell%3E%3C%2Froot%3E%3C%2FmxGraphModel%3E&lt;/span&gt;" style="endArrow=none;html=1;exitX=1;exitY=0.3333333333333333;exitDx=0;exitDy=0;entryX=0;entryY=0.5;entryDx=0;entryDy=0;exitPerimeter=0;" edge="1" parent="1" source="O3HHik6MoNN61QqDQuIx-30" target="O3HHik6MoNN61QqDQuIx-31">
          <mxGeometry width="50" height="50" relative="1" as="geometry">
            <mxPoint x="184" y="286" as="sourcePoint" />
            <mxPoint x="444" y="286" as="targetPoint" />
          </mxGeometry>
        </mxCell>
        <mxCell id="O3HHik6MoNN61QqDQuIx-44" value="" style="endArrow=classicThin;html=1;strokeWidth=1;endSize=20;entryX=0;entryY=0.5;entryDx=0;entryDy=0;" edge="1" parent="1">
          <mxGeometry width="100" relative="1" as="geometry">
            <mxPoint x="724" y="203" as="sourcePoint" />
            <mxPoint x="756" y="194" as="targetPoint" />
            <Array as="points" />
          </mxGeometry>
        </mxCell>
        <mxCell id="O3HHik6MoNN61QqDQuIx-45" value="&lt;span style=&quot;font-family: &amp;#34;verdana&amp;#34; ; text-align: center&quot;&gt;2: اضافه کردن فروشنده&lt;/span&gt;" style="text;whiteSpace=wrap;html=1;rotation=346;" vertex="1" parent="1">
          <mxGeometry x="614" y="202" width="114" height="30" as="geometry" />
        </mxCell>
        <mxCell id="O3HHik6MoNN61QqDQuIx-46" value="&lt;span style=&quot;color: rgba(0 , 0 , 0 , 0) ; font-family: monospace ; font-size: 0px ; background-color: rgb(248 , 249 , 250)&quot;&gt;%3CmxGraphModel%3E%3Croot%3E%3CmxCell%20id%3D%220%22%2F%3E%3CmxCell%20id%3D%221%22%20parent%3D%220%22%2F%3E%3CmxCell%20id%3D%222%22%20value%3D%22%22%20style%3D%22endArrow%3Dnone%3Bhtml%3D1%3BexitX%3D1%3BexitY%3D0.5%3BexitDx%3D0%3BexitDy%3D0%3BentryX%3D0%3BentryY%3D0.5%3BentryDx%3D0%3BentryDy%3D0%3B%22%20edge%3D%221%22%20parent%3D%221%22%3E%3CmxGeometry%20width%3D%2250%22%20height%3D%2250%22%20relative%3D%221%22%20as%3D%22geometry%22%3E%3CmxPoint%20x%3D%22434.0000000000002%22%20y%3D%22240%22%20as%3D%22sourcePoint%22%2F%3E%3CmxPoint%20x%3D%22683.9999999999998%22%20y%3D%22240%22%20as%3D%22targetPoint%22%2F%3E%3C%2FmxGeometry%3E%3C%2FmxCell%3E%3C%2Froot%3E%3C%2FmxGraphModel%3E&lt;/span&gt;" style="endArrow=none;html=1;exitX=0;exitY=0.5;exitDx=0;exitDy=0;entryX=1;entryY=0.5;entryDx=0;entryDy=0;" edge="1" parent="1" source="O3HHik6MoNN61QqDQuIx-34" target="O3HHik6MoNN61QqDQuIx-31">
          <mxGeometry x="-0.0584" y="33" width="50" height="50" relative="1" as="geometry">
            <mxPoint x="880.5" y="167.5" as="sourcePoint" />
            <mxPoint x="560" y="286" as="targetPoint" />
            <mxPoint as="offset" />
          </mxGeometry>
        </mxCell>
        <mxCell id="O3HHik6MoNN61QqDQuIx-50" value="" style="endArrow=classicThin;html=1;strokeWidth=1;endSize=20;entryX=0;entryY=0.5;entryDx=0;entryDy=0;" edge="1" parent="1">
          <mxGeometry width="100" relative="1" as="geometry">
            <mxPoint x="395" y="265" as="sourcePoint" />
            <mxPoint x="425" y="265" as="targetPoint" />
            <Array as="points" />
          </mxGeometry>
        </mxCell>
        <mxCell id="O3HHik6MoNN61QqDQuIx-51" value="&lt;span style=&quot;text-align: center&quot;&gt;3: اطلاعات رستوران)&amp;nbsp;&lt;/span&gt;&lt;span style=&quot;text-align: center&quot;&gt;&lt;font style=&quot;font-size: 12px&quot;&gt;درخواست ثبت نام)&lt;/font&gt;&lt;/span&gt;" style="text;whiteSpace=wrap;html=1;" vertex="1" parent="1">
          <mxGeometry x="221" y="250" width="172" height="30" as="geometry" />
        </mxCell>
        <mxCell id="O3HHik6MoNN61QqDQuIx-52" value="&lt;span style=&quot;color: rgba(0 , 0 , 0 , 0) ; font-family: monospace ; font-size: 0px ; background-color: rgb(248 , 249 , 250)&quot;&gt;%3CmxGraphModel%3E%3Croot%3E%3CmxCell%20id%3D%220%22%2F%3E%3CmxCell%20id%3D%221%22%20parent%3D%220%22%2F%3E%3CmxCell%20id%3D%222%22%20value%3D%22%22%20style%3D%22endArrow%3Dnone%3Bhtml%3D1%3BexitX%3D1%3BexitY%3D0.5%3BexitDx%3D0%3BexitDy%3D0%3BentryX%3D0%3BentryY%3D0.5%3BentryDx%3D0%3BentryDy%3D0%3B%22%20edge%3D%221%22%20parent%3D%221%22%3E%3CmxGeometry%20width%3D%2250%22%20height%3D%2250%22%20relative%3D%221%22%20as%3D%22geometry%22%3E%3CmxPoint%20x%3D%22434.0000000000002%22%20y%3D%22240%22%20as%3D%22sourcePoint%22%2F%3E%3CmxPoint%20x%3D%22683.9999999999998%22%20y%3D%22240%22%20as%3D%22targetPoint%22%2F%3E%3C%2FmxGeometry%3E%3C%2FmxCell%3E%3C%2Froot%3E%3C%2FmxGraphModel%3E&lt;/span&gt;" style="endArrow=none;html=1;exitX=0;exitY=0.3333333333333333;exitDx=0;exitDy=0;entryX=1;entryY=0.5;entryDx=0;entryDy=0;exitPerimeter=0;" edge="1" parent="1" source="O3HHik6MoNN61QqDQuIx-36" target="O3HHik6MoNN61QqDQuIx-31">
          <mxGeometry x="-0.0584" y="33" width="50" height="50" relative="1" as="geometry">
            <mxPoint x="810" y="230" as="sourcePoint" />
            <mxPoint x="600" y="230" as="targetPoint" />
            <mxPoint as="offset" />
          </mxGeometry>
        </mxCell>
        <mxCell id="O3HHik6MoNN61QqDQuIx-54" value="&lt;div style=&quot;text-align: center&quot;&gt;&lt;span&gt;&lt;font face=&quot;helvetica&quot;&gt;&amp;nbsp;اطلاعات رستوران) ثبت نام : 4)&lt;/font&gt;&lt;/span&gt;&lt;/div&gt;" style="text;whiteSpace=wrap;html=1;rotation=18;" vertex="1" parent="1">
          <mxGeometry x="610" y="293" width="140" height="30" as="geometry" />
        </mxCell>
        <mxCell id="O3HHik6MoNN61QqDQuIx-55" value="" style="endArrow=classicThin;html=1;strokeWidth=1;endSize=20;" edge="1" parent="1">
          <mxGeometry width="100" relative="1" as="geometry">
            <mxPoint x="750" y="332" as="sourcePoint" />
            <mxPoint x="781" y="346" as="targetPoint" />
            <Array as="points" />
          </mxGeometry>
        </mxCell>
        <mxCell id="O3HHik6MoNN61QqDQuIx-57" value="&lt;span style=&quot;color: rgba(0 , 0 , 0 , 0) ; font-family: monospace ; font-size: 0px ; background-color: rgb(248 , 249 , 250)&quot;&gt;%3CmxGraphModel%3E%3Croot%3E%3CmxCell%20id%3D%220%22%2F%3E%3CmxCell%20id%3D%221%22%20parent%3D%220%22%2F%3E%3CmxCell%20id%3D%222%22%20value%3D%22%22%20style%3D%22endArrow%3Dnone%3Bhtml%3D1%3BexitX%3D1%3BexitY%3D0.5%3BexitDx%3D0%3BexitDy%3D0%3BentryX%3D0%3BentryY%3D0.5%3BentryDx%3D0%3BentryDy%3D0%3B%22%20edge%3D%221%22%20parent%3D%221%22%3E%3CmxGeometry%20width%3D%2250%22%20height%3D%2250%22%20relative%3D%221%22%20as%3D%22geometry%22%3E%3CmxPoint%20x%3D%22434.0000000000002%22%20y%3D%22240%22%20as%3D%22sourcePoint%22%2F%3E%3CmxPoint%20x%3D%22683.9999999999998%22%20y%3D%22240%22%20as%3D%22targetPoint%22%2F%3E%3C%2FmxGeometry%3E%3C%2FmxCell%3E%3C%2Froot%3E%3C%2FmxGraphModel%3E&lt;/span&gt;" style="endArrow=none;html=1;exitX=1;exitY=0.3333333333333333;exitDx=0;exitDy=0;entryX=0;entryY=0.5;entryDx=0;entryDy=0;exitPerimeter=0;" edge="1" parent="1" source="O3HHik6MoNN61QqDQuIx-36" target="O3HHik6MoNN61QqDQuIx-33">
          <mxGeometry width="50" height="50" relative="1" as="geometry">
            <mxPoint x="840" y="371.9999999999999" as="sourcePoint" />
            <mxPoint x="1070" y="371.9999999999999" as="targetPoint" />
          </mxGeometry>
        </mxCell>
        <mxCell id="O3HHik6MoNN61QqDQuIx-58" value="" style="endArrow=classicThin;html=1;strokeWidth=1;endSize=20;entryX=0;entryY=0.5;entryDx=0;entryDy=0;" edge="1" parent="1">
          <mxGeometry width="100" relative="1" as="geometry">
            <mxPoint x="1050" y="350.58" as="sourcePoint" />
            <mxPoint x="1080" y="350.58" as="targetPoint" />
            <Array as="points" />
          </mxGeometry>
        </mxCell>
        <mxCell id="O3HHik6MoNN61QqDQuIx-59" value="&lt;span style=&quot;text-align: center&quot;&gt;5: اطلاعات رستوران)&amp;nbsp;&lt;/span&gt;&lt;span style=&quot;text-align: center&quot;&gt;&lt;font style=&quot;font-size: 12px&quot;&gt;اضافه کردن رستوران)&lt;/font&gt;&lt;/span&gt;" style="text;whiteSpace=wrap;html=1;" vertex="1" parent="1">
          <mxGeometry x="860" y="336" width="189" height="30" as="geometry" />
        </mxCell>
        <mxCell id="O3HHik6MoNN61QqDQuIx-60" value="&lt;span style=&quot;color: rgba(0 , 0 , 0 , 0) ; font-family: monospace ; font-size: 0px ; background-color: rgb(248 , 249 , 250)&quot;&gt;%3CmxGraphModel%3E%3Croot%3E%3CmxCell%20id%3D%220%22%2F%3E%3CmxCell%20id%3D%221%22%20parent%3D%220%22%2F%3E%3CmxCell%20id%3D%222%22%20value%3D%22%22%20style%3D%22endArrow%3Dnone%3Bhtml%3D1%3BexitX%3D1%3BexitY%3D0.5%3BexitDx%3D0%3BexitDy%3D0%3BentryX%3D0%3BentryY%3D0.5%3BentryDx%3D0%3BentryDy%3D0%3B%22%20edge%3D%221%22%20parent%3D%221%22%3E%3CmxGeometry%20width%3D%2250%22%20height%3D%2250%22%20relative%3D%221%22%20as%3D%22geometry%22%3E%3CmxPoint%20x%3D%22434.0000000000002%22%20y%3D%22240%22%20as%3D%22sourcePoint%22%2F%3E%3CmxPoint%20x%3D%22683.9999999999998%22%20y%3D%22240%22%20as%3D%22targetPoint%22%2F%3E%3C%2FmxGeometry%3E%3C%2FmxCell%3E%3C%2Froot%3E%3C%2FmxGraphModel%3E&lt;/span&gt;" style="endArrow=none;html=1;exitX=1;exitY=0.5;exitDx=0;exitDy=0;entryX=0;entryY=0.5;entryDx=0;entryDy=0;" edge="1" parent="1" source="O3HHik6MoNN61QqDQuIx-33" target="O3HHik6MoNN61QqDQuIx-37">
          <mxGeometry width="50" height="50" relative="1" as="geometry">
            <mxPoint x="850" y="376" as="sourcePoint" />
            <mxPoint x="1110" y="376" as="targetPoint" />
          </mxGeometry>
        </mxCell>
        <mxCell id="O3HHik6MoNN61QqDQuIx-61" value="&lt;div style=&quot;text-align: center&quot;&gt;&lt;span&gt;6: ایجاد رستوران&lt;/span&gt;&lt;/div&gt;" style="text;whiteSpace=wrap;html=1;" vertex="1" parent="1">
          <mxGeometry x="1260" y="336" width="80" height="30" as="geometry" />
        </mxCell>
        <mxCell id="O3HHik6MoNN61QqDQuIx-62" value="" style="endArrow=classicThin;html=1;strokeWidth=1;endSize=20;entryX=0;entryY=0.5;entryDx=0;entryDy=0;" edge="1" parent="1">
          <mxGeometry width="100" relative="1" as="geometry">
            <mxPoint x="1350" y="350.4099999999999" as="sourcePoint" />
            <mxPoint x="1380" y="350.4099999999999" as="targetPoint" />
            <Array as="points" />
          </mxGeometry>
        </mxCell>
        <mxCell id="O3HHik6MoNN61QqDQuIx-63" value="" style="endArrow=classicThin;html=1;strokeWidth=1;endSize=20;entryX=0;entryY=0.5;entryDx=0;entryDy=0;" edge="1" parent="1">
          <mxGeometry width="100" relative="1" as="geometry">
            <mxPoint x="750" y="226" as="sourcePoint" />
            <mxPoint x="782" y="216.99999999999994" as="targetPoint" />
            <Array as="points" />
          </mxGeometry>
        </mxCell>
      </root>
    </mxGraphModel>
  </diagram>
</mxfile>
